<svg width="91" height="31" viewBox="0 0 91 31" fill="none" xmlns="http://www.w3.org/2000/svg">
<path d="M4.94829 16.435C4.08137 16.435 3.31824 16.2457 2.65889 15.8669C1.99954 15.476 1.48671 14.9384 1.12041 14.2541C0.754103 13.5578 0.570953 12.7575 0.570953 11.8534C0.570953 10.766 0.839576 9.813 1.37683 8.99449C1.92628 8.17587 2.70162 7.54662 3.70285 7.10676C4.71629 6.66702 5.90068 6.44709 7.25601 6.44709C7.87872 6.44709 8.38544 6.48981 8.77617 6.57537V6.19052C8.77617 5.26194 8.60522 4.57164 8.26334 4.11959C7.92146 3.65531 7.40253 3.42317 6.70654 3.42317C5.58321 3.42317 4.86281 4.01573 4.54536 5.20084C4.44767 5.54295 4.24621 5.68956 3.94095 5.64068L1.45009 5.20084C1.26693 5.1642 1.13872 5.08478 1.06546 4.96261C1.00441 4.84042 0.998307 4.67549 1.04716 4.46779C1.36462 3.22158 2.03618 2.25638 3.06183 1.5722C4.09969 0.875791 5.40008 0.527588 6.96297 0.527588C8.81891 0.527588 10.2292 1.02851 11.1938 2.03036C12.1706 3.03221 12.659 4.49222 12.659 6.41045V15.6287C12.659 15.7631 12.6102 15.8791 12.5125 15.9768C12.427 16.0624 12.3171 16.1051 12.1828 16.1051H9.80182C9.50878 16.1051 9.32563 15.9462 9.25237 15.6287L8.88607 13.906H8.73954C8.40988 14.7123 7.91537 15.3354 7.25602 15.7752C6.60888 16.2151 5.83963 16.435 4.94829 16.435ZM4.56366 11.4135C4.56366 12.0611 4.7285 12.5803 5.05817 12.9713C5.40007 13.35 5.85794 13.5394 6.43182 13.5394C7.18885 13.5394 7.76883 13.2034 8.17176 12.5314C8.57469 11.8473 8.77617 10.8698 8.77617 9.59927V8.6279C8.43428 8.5668 8.11072 8.53625 7.80546 8.53625C6.80423 8.53625 6.01057 8.79891 5.42448 9.32433C4.8506 9.83746 4.56366 10.5339 4.56366 11.4135ZM14.93 1.33395C14.93 1.19955 14.9728 1.0896 15.0582 1.00407C15.1559 0.906328 15.272 0.857462 15.4062 0.857462H17.8239C17.9582 0.857462 18.0681 0.900218 18.1535 0.985744C18.2513 1.07127 18.3122 1.18733 18.3367 1.33395L18.703 3.12995H18.8495C19.1792 2.28693 19.6493 1.6455 20.2599 1.20566C20.8825 0.753606 21.6151 0.527588 22.4576 0.527588C23.3612 0.527588 24.1365 0.765825 24.7836 1.24232C25.443 1.71881 25.9497 2.3969 26.3038 3.27656H26.4504C26.9876 2.34802 27.5921 1.65772 28.2636 1.20566C28.9352 0.753606 29.686 0.527588 30.5163 0.527588C31.4199 0.527588 32.2013 0.771935 32.8607 1.26064C33.5322 1.74936 34.0451 2.44576 34.3991 3.34987C34.7532 4.25398 34.9303 5.32303 34.9303 6.55699V15.6287C34.9303 15.7631 34.8814 15.8791 34.7838 15.9768C34.6982 16.0624 34.5884 16.1051 34.4541 16.1051H31.5237C31.3894 16.1051 31.2734 16.0624 31.1757 15.9768C31.0902 15.8791 31.0475 15.7631 31.0475 15.6287V6.8502C31.0475 5.9583 30.8766 5.27415 30.5347 4.79766C30.1927 4.32118 29.6983 4.08293 29.0511 4.08293C28.3429 4.08293 27.7996 4.36394 27.421 4.92595C27.0548 5.48796 26.8716 6.30043 26.8716 7.36333V15.6287C26.8716 15.7631 26.8227 15.8791 26.725 15.9768C26.6396 16.0624 26.5297 16.1051 26.3954 16.1051H23.465C23.3307 16.1051 23.2146 16.0624 23.117 15.9768C23.0315 15.8791 22.9888 15.7631 22.9888 15.6287V6.8502C22.9888 5.9583 22.8179 5.27415 22.4759 4.79766C22.134 4.32118 21.6396 4.08293 20.9925 4.08293C20.2842 4.08293 19.7408 4.36394 19.3623 4.92595C18.9961 5.48796 18.8129 6.30043 18.8129 7.36333V15.6287C18.8129 15.7631 18.7641 15.8791 18.6664 15.9768C18.5809 16.0624 18.471 16.1051 18.3367 16.1051H15.4062C15.272 16.1051 15.1559 16.0624 15.0582 15.9768C14.9728 15.8791 14.93 15.7631 14.93 15.6287V1.33395ZM36.835 11.8534C36.835 10.766 37.1037 9.813 37.641 8.99449C38.1904 8.17587 38.9657 7.54662 39.967 7.10676C40.9804 6.66702 42.1648 6.44709 43.5201 6.44709C44.1429 6.44709 44.6496 6.48981 45.0403 6.57537V6.19052C45.0403 5.26194 44.8693 4.57164 44.5275 4.11959C44.1856 3.65531 43.6667 3.42317 42.9707 3.42317C41.8474 3.42317 41.1269 4.01573 40.8095 5.20084C40.7118 5.54295 40.5104 5.68956 40.2051 5.64068L37.7142 5.20084C37.531 5.1642 37.4028 5.08478 37.3296 4.96261C37.2685 4.84042 37.2624 4.67549 37.3112 4.46779C37.6287 3.22158 38.3002 2.25638 39.326 1.5722C40.3638 0.875791 41.6642 0.527588 43.2271 0.527588C45.083 0.527588 46.4933 1.02851 47.4579 2.03036C48.4347 3.03221 48.9232 4.49222 48.9232 6.41045V15.6287C48.9232 15.7631 48.8743 15.8791 48.7766 15.9768C48.6911 16.0624 48.5812 16.1051 48.447 16.1051H46.0659C45.7729 16.1051 45.5897 15.9462 45.5165 15.6287L45.1502 13.906H45.0037C44.6739 14.7123 44.1795 15.3354 43.5201 15.7752C42.873 16.2151 42.1038 16.435 41.2124 16.435C40.3211 16.435 39.5824 16.2457 38.923 15.8669C38.2636 15.476 37.7508 14.9384 37.3846 14.2541C37.0182 13.5578 36.835 12.7575 36.835 11.8534ZM40.8278 11.4135C40.8278 12.0611 40.9926 12.5803 41.3223 12.9713C41.6642 13.35 42.122 13.5394 42.6959 13.5394C43.453 13.5394 44.0329 13.2034 44.4359 12.5314C44.8388 11.8473 45.0403 10.8698 45.0403 9.59927V8.6279C44.6984 8.5668 44.3748 8.53625 44.0695 8.53625C43.0684 8.53625 42.2747 8.79891 41.6886 9.32433C41.1148 9.83746 40.8278 10.5339 40.8278 11.4135ZM50.9012 13.4111C50.9012 13.1424 50.9744 12.9102 51.121 12.7147L57.3847 3.93632H51.5239C51.3896 3.93632 51.2735 3.89356 51.1759 3.80803C51.0905 3.71029 51.0477 3.59422 51.0477 3.45983V1.33395C51.0477 1.19955 51.0905 1.0896 51.1759 1.00407C51.2735 0.906328 51.3896 0.857462 51.5239 0.857462H61.1576C61.292 0.857462 61.4019 0.906328 61.4874 1.00407C61.5851 1.0896 61.6338 1.19955 61.6338 1.33395V3.55146C61.6338 3.82025 61.5606 4.05238 61.414 4.24787L55.7363 12.0549C56.0783 11.9939 56.4263 11.9634 56.7803 11.9634C57.6595 11.9634 58.4654 12.0427 59.198 12.2016C59.9427 12.3482 60.712 12.5925 61.5056 12.9346C61.7865 13.0568 61.9269 13.2645 61.9269 13.5578V15.6653C61.9269 15.8608 61.8659 15.9952 61.7438 16.0684C61.6217 16.1295 61.469 16.1235 61.2858 16.0502C60.3702 15.708 59.5581 15.4699 58.85 15.3354C58.154 15.1888 57.3908 15.1154 56.5605 15.1154C55.7303 15.1154 54.9366 15.1888 54.1429 15.3354C53.3615 15.482 52.4946 15.7202 51.5422 16.0502C51.359 16.1113 51.2064 16.1113 51.0843 16.0502C50.9623 15.9768 50.9012 15.8485 50.9012 15.6653V13.4111ZM62.7328 8.48124C62.7328 6.99077 63.0198 5.64068 63.5936 4.43113C64.1675 3.20936 64.955 2.25638 65.9563 1.5722C66.9697 0.875791 68.0931 0.527588 69.3262 0.527588C70.5595 0.527588 71.695 0.875791 72.6962 1.5722C73.7097 2.25638 74.5034 3.20936 75.0772 4.43113C75.6633 5.64068 75.9564 6.99077 75.9564 8.48124C75.9564 9.97183 75.6633 11.3281 75.0772 12.5498C74.5034 13.7593 73.7097 14.7123 72.6962 15.4088C71.695 16.0929 70.5717 16.435 69.3262 16.435C68.0808 16.435 66.9697 16.0929 65.9563 15.4088C64.955 14.7123 64.1675 13.7593 63.5936 12.5498C63.0198 11.3281 62.7328 9.97183 62.7328 8.48124ZM66.7621 8.48124C66.7621 10.0329 66.9819 11.2303 67.4215 12.0733C67.8611 12.9041 68.4959 13.3195 69.3262 13.3195C70.1566 13.3195 70.7976 12.9041 71.2494 12.0733C71.7011 11.2303 71.927 10.0329 71.927 8.48124C71.927 6.92967 71.7011 5.73843 71.2494 4.90763C70.7976 4.0646 70.1566 3.64309 69.3262 3.64309C68.4959 3.64309 67.8611 4.0646 67.4215 4.90763C66.9819 5.73843 66.7621 6.92967 66.7621 8.48124ZM77.9343 1.33395C77.9343 1.19955 77.9772 1.0896 78.0627 1.00407C78.1603 0.906328 78.2763 0.857462 78.4106 0.857462H80.8282C80.9625 0.857462 81.0724 0.900218 81.1579 0.985744C81.2556 1.07127 81.3167 1.18733 81.341 1.33395L81.7074 3.12995H81.8538C82.1836 2.29915 82.6658 1.65772 83.3008 1.20566C83.9479 0.753606 84.7049 0.527588 85.5718 0.527588C86.4998 0.527588 87.2996 0.771935 87.9711 1.26064C88.6549 1.74936 89.1799 2.44576 89.5463 3.34987C89.9125 4.25398 90.0957 5.32303 90.0957 6.55699V15.6287C90.0957 15.7631 90.0468 15.8791 89.9492 15.9768C89.8638 16.0624 89.7538 16.1051 89.6195 16.1051H86.6891C86.5548 16.1051 86.4387 16.0624 86.3411 15.9768C86.2557 15.8791 86.2129 15.7631 86.2129 15.6287V6.8502C86.2129 5.9583 86.0297 5.27415 85.6634 4.79766C85.2971 4.32118 84.7782 4.08293 84.1066 4.08293C83.3618 4.08293 82.794 4.36394 82.4034 4.92595C82.0125 5.48796 81.8172 6.30043 81.8172 7.36333V15.6287C81.8172 15.7631 81.7684 15.8791 81.6707 15.9768C81.5852 16.0624 81.4754 16.1051 81.341 16.1051H78.4106C78.2763 16.1051 78.1603 16.0624 78.0627 15.9768C77.9772 15.8791 77.9343 15.7631 77.9343 15.6287V1.33395Z" fill="#171D27"/>
<path d="M10.7546 18.2122C10.5226 18.3955 10.4738 18.7009 10.6081 19.1285C10.7302 19.5073 11.0172 19.9776 11.4689 20.5397C13.2882 22.7878 15.4555 24.657 17.9708 26.1476C20.4861 27.6382 23.1785 28.7377 26.0479 29.4463C28.9294 30.1672 31.872 30.5276 34.8757 30.5276C38.722 30.5276 42.385 29.9657 45.8649 28.8415C49.3448 27.7297 52.2508 26.1659 54.583 24.15C55.401 23.4292 55.8101 22.855 55.8101 22.4273C55.8101 22.2684 55.7429 22.1096 55.6086 21.9508C55.4254 21.7676 55.2056 21.7065 54.9492 21.7676C54.6928 21.8286 54.3327 21.9813 53.8686 22.2257C51.6342 23.3986 48.9114 24.3333 45.7001 25.0297C42.501 25.7383 39.1615 26.0926 35.6817 26.0926C31.3715 26.0926 27.2078 25.5062 23.1907 24.3333C19.1735 23.1603 15.6142 21.3277 12.5129 18.8353C12.0611 18.481 11.6948 18.2549 11.414 18.1572C11.1454 18.0594 10.9256 18.0778 10.7546 18.2122Z" fill="#FF6201"/>
<path d="M51.4503 19.1296C51.1939 19.3739 51.1268 19.6305 51.2489 19.8994C51.3344 20.0948 51.4992 20.2047 51.7435 20.2292C51.9876 20.2658 52.3356 20.2414 52.7873 20.1559C53.5199 19.9971 54.2831 19.8871 55.0768 19.826C55.8704 19.7772 56.5603 19.7893 57.1464 19.8626C57.7325 19.9482 58.0988 20.0948 58.2454 20.3025C58.4652 20.6324 58.3857 21.3287 58.0072 22.3918C57.641 23.4547 57.1403 24.487 56.5054 25.4889C56.2611 25.892 56.1147 26.2097 56.0658 26.4419C56.017 26.674 56.0781 26.8695 56.249 27.0283C56.3588 27.1382 56.4809 27.1933 56.6152 27.1933C56.9694 27.1933 57.4822 26.8817 58.1538 26.2586C59.3626 25.2079 60.2111 23.9617 60.6996 22.52C60.9682 21.7747 61.133 20.9928 61.1941 20.1742C61.2551 19.3557 61.1635 18.7692 60.9193 18.4149C60.6873 18.0727 60.1745 17.7917 59.3808 17.5719C58.5994 17.352 57.8119 17.2419 57.0182 17.2419C55.4675 17.2419 53.9961 17.6085 52.6043 18.3416C52.0915 18.6226 51.7068 18.8853 51.4503 19.1296Z" fill="#FF6201"/>
</svg>
