<svg width="25" height="24" viewBox="0 0 25 24" fill="none" xmlns="http://www.w3.org/2000/svg">
<path d="M12.2838 2C6.77375 2 2.28375 6.49 2.28375 12C2.28375 17.51 6.77375 22 12.2838 22C17.7938 22 22.2838 17.51 22.2838 12C22.2838 6.49 17.7938 2 12.2838 2ZM17.0638 9.7L11.3938 15.37C11.2538 15.51 11.0638 15.59 10.8638 15.59C10.6638 15.59 10.4738 15.51 10.3338 15.37L7.50375 12.54C7.21375 12.25 7.21375 11.77 7.50375 11.48C7.79375 11.19 8.27375 11.19 8.56375 11.48L10.8638 13.78L16.0038 8.64C16.2938 8.35 16.7738 8.35 17.0638 8.64C17.3538 8.93 17.3538 9.4 17.0638 9.7Z" fill="url(#paint0_linear_268_134)"/>
<defs>
<linearGradient id="paint0_linear_268_134" x1="3.25803" y1="3.61412" x2="23.178" y2="4.95693" gradientUnits="userSpaceOnUse">
<stop stop-color="#0EA5E9"/>
<stop offset="0.490385" stop-color="#458FE3"/>
<stop offset="1" stop-color="#2D71E6"/>
</linearGradient>
</defs>
</svg>
