<svg width="25" height="24" viewBox="0 0 25 24" fill="none" xmlns="http://www.w3.org/2000/svg">
<path d="M12.2838 2C6.77375 2 2.28375 6.49 2.28375 12C2.28375 17.51 6.77375 22 12.2838 22C17.7938 22 22.2838 17.51 22.2838 12C22.2838 6.49 17.7938 2 12.2838 2ZM16.6338 15.57C16.4938 15.81 16.2438 15.94 15.9838 15.94C15.8538 15.94 15.7238 15.91 15.6038 15.83L12.5038 13.98C11.7338 13.52 11.1638 12.51 11.1638 11.62V7.52C11.1638 7.11 11.5038 6.77 11.9138 6.77C12.3238 6.77 12.6638 7.11 12.6638 7.52V11.62C12.6638 11.98 12.9638 12.51 13.2738 12.69L16.3738 14.54C16.7338 14.75 16.8538 15.21 16.6338 15.57Z" fill="url(#paint0_linear_153_315)"/>
<defs>
<linearGradient id="paint0_linear_153_315" x1="3.25803" y1="3.61412" x2="23.178" y2="4.95693" gradientUnits="userSpaceOnUse">
<stop stop-color="#0EA5E9"/>
<stop offset="0.490385" stop-color="#458FE3"/>
<stop offset="1" stop-color="#2D71E6"/>
</linearGradient>
</defs>
</svg>
