<svg width="24" height="25" viewBox="0 0 24 25" fill="none" xmlns="http://www.w3.org/2000/svg">
<path d="M20.5 10.2662H17.61C15.24 10.2662 13.31 8.33617 13.31 5.96617V3.07617C13.31 2.52617 12.86 2.07617 12.31 2.07617H8.07C4.99 2.07617 2.5 4.07617 2.5 7.64617V16.5062C2.5 20.0762 4.99 22.0762 8.07 22.0762H15.93C19.01 22.0762 21.5 20.0762 21.5 16.5062V11.2662C21.5 10.7162 21.05 10.2662 20.5 10.2662ZM12.28 15.8562L10.28 17.8562C10.21 17.9262 10.12 17.9862 10.03 18.0162C9.94 18.0562 9.85 18.0762 9.75 18.0762C9.65 18.0762 9.56 18.0562 9.47 18.0162C9.39 17.9862 9.31 17.9262 9.25 17.8662C9.24 17.8562 9.23 17.8562 9.23 17.8462L7.23 15.8462C6.94 15.5562 6.94 15.0762 7.23 14.7862C7.52 14.4962 8 14.4962 8.29 14.7862L9 15.5162V11.3262C9 10.9162 9.34 10.5762 9.75 10.5762C10.16 10.5762 10.5 10.9162 10.5 11.3262V15.5162L11.22 14.7962C11.51 14.5062 11.99 14.5062 12.28 14.7962C12.57 15.0862 12.57 15.5662 12.28 15.8562Z" fill="white"/>
<path d="M17.43 8.88617C18.38 8.89617 19.7 8.89616 20.83 8.89616C21.4 8.89616 21.7 8.22616 21.3 7.82616C19.86 6.37616 17.28 3.76616 15.8 2.28616C15.39 1.87616 14.68 2.15617 14.68 2.72616V6.21616C14.68 7.67616 15.92 8.88617 17.43 8.88617Z" fill="white"/>
</svg>
