<svg width="41" height="41" viewBox="0 0 41 41" fill="none" xmlns="http://www.w3.org/2000/svg">
<path d="M37.1931 27.3087C37.1931 33.3754 33.5764 36.992 27.5097 36.992H25.5264C24.6097 36.992 23.8597 36.242 23.8597 35.3254V25.7087C23.8597 25.2587 24.2264 24.8754 24.6764 24.8754L27.6097 24.8254C27.8431 24.8087 28.0431 24.642 28.0931 24.4087L28.6764 21.2254C28.7264 20.9254 28.4931 20.642 28.1764 20.642L24.6264 20.692C24.1597 20.692 23.7931 20.3254 23.7764 19.8754L23.7097 15.792C23.7097 15.5254 23.9264 15.292 24.2097 15.292L28.2097 15.2254C28.4931 15.2254 28.7097 15.0087 28.7097 14.7254L28.6431 10.7253C28.6431 10.442 28.4264 10.2254 28.1431 10.2254L23.6431 10.292C20.8764 10.342 18.6764 12.6087 18.7264 15.3754L18.8097 19.9587C18.8264 20.4254 18.4598 20.792 17.9931 20.8087L15.9931 20.842C15.7097 20.842 15.4931 21.0587 15.4931 21.342L15.5431 24.5087C15.5431 24.792 15.7597 25.0087 16.0431 25.0087L18.0431 24.9754C18.5098 24.9754 18.8764 25.342 18.8931 25.792L19.0431 35.292C19.0597 36.2254 18.3097 36.992 17.3764 36.992H13.5431C7.4764 36.992 3.85974 33.3753 3.85974 27.292V13.342C3.85974 7.27535 7.4764 3.65869 13.5431 3.65869H27.5097C33.5764 3.65869 37.1931 7.27535 37.1931 13.342V27.3087Z" fill="#2D71E6"/>
</svg>
