<svg width="40" height="41" viewBox="0 0 40 41" fill="none" xmlns="http://www.w3.org/2000/svg">
<path d="M26.9834 3.65869H13.0167C6.95004 3.65869 3.33337 7.27536 3.33337 13.342V27.292C3.33337 33.3754 6.95004 36.992 13.0167 36.992H26.9667C33.0334 36.992 36.65 33.3754 36.65 27.3087V13.342C36.6667 7.27536 33.05 3.65869 26.9834 3.65869ZM20 26.792C16.4334 26.792 13.5334 23.892 13.5334 20.3254C13.5334 16.7587 16.4334 13.8587 20 13.8587C23.5667 13.8587 26.4667 16.7587 26.4667 20.3254C26.4667 23.892 23.5667 26.792 20 26.792ZM29.8667 11.792C29.7834 11.992 29.6667 12.1754 29.5167 12.342C29.35 12.492 29.1667 12.6087 28.9667 12.692C28.7667 12.7754 28.55 12.8254 28.3334 12.8254C27.8834 12.8254 27.4667 12.6587 27.15 12.342C27 12.1754 26.8834 11.992 26.8 11.792C26.7167 11.592 26.6667 11.3754 26.6667 11.1587C26.6667 10.942 26.7167 10.7254 26.8 10.5254C26.8834 10.3087 27 10.142 27.15 9.97536C27.5334 9.59202 28.1167 9.40869 28.65 9.52536C28.7667 9.54203 28.8667 9.57536 28.9667 9.62536C29.0667 9.65869 29.1667 9.70869 29.2667 9.77536C29.35 9.82536 29.4334 9.90869 29.5167 9.97536C29.6667 10.142 29.7834 10.3087 29.8667 10.5254C29.95 10.7254 30 10.942 30 11.1587C30 11.3754 29.95 11.592 29.8667 11.792Z" fill="#2D71E6"/>
</svg>
