<svg width="25" height="24" viewBox="0 0 25 24" fill="none" xmlns="http://www.w3.org/2000/svg">
<path d="M12.9614 19.957C13.2362 20.0209 13.2613 20.3807 12.9937 20.4699L11.4137 20.9899C7.44373 22.2699 5.35373 21.1999 4.06373 17.2299L2.78373 13.2799C1.50373 9.30992 2.56373 7.20992 6.53373 5.92992L7.05772 5.75639C7.46059 5.62297 7.85265 6.02703 7.73826 6.43571C7.68156 6.63828 7.62701 6.84968 7.57373 7.06992L6.59373 11.2599C5.49373 15.9699 7.10373 18.5699 11.8137 19.6899L12.9614 19.957Z" fill="url(#paint0_linear_153_307)"/>
<path d="M17.4537 3.21001L15.7837 2.82001C12.4437 2.03001 10.4537 2.68001 9.28375 5.10001C8.98375 5.71001 8.74375 6.45001 8.54375 7.30001L7.56375 11.49C6.58375 15.67 7.87375 17.73 12.0437 18.72L13.7237 19.12C14.3037 19.26 14.8437 19.35 15.3437 19.39C18.4637 19.69 20.1237 18.23 20.9637 14.62L21.9437 10.44C22.9237 6.26001 21.6437 4.19001 17.4537 3.21001ZM15.5737 13.33C15.4837 13.67 15.1837 13.89 14.8437 13.89C14.7837 13.89 14.7237 13.88 14.6537 13.87L11.7437 13.13C11.3437 13.03 11.1037 12.62 11.2037 12.22C11.3037 11.82 11.7137 11.58 12.1137 11.68L15.0237 12.42C15.4337 12.52 15.6737 12.93 15.5737 13.33ZM18.5037 9.95001C18.4137 10.29 18.1137 10.51 17.7737 10.51C17.7137 10.51 17.6537 10.5 17.5837 10.49L12.7337 9.26001C12.3337 9.16001 12.0937 8.75001 12.1937 8.35001C12.2937 7.95001 12.7037 7.71001 13.1037 7.81001L17.9537 9.04001C18.3637 9.13001 18.6037 9.54001 18.5037 9.95001Z" fill="url(#paint1_linear_153_307)"/>
<defs>
<linearGradient id="paint0_linear_153_307" x1="2.83304" y1="6.71786" x2="14.376" y2="7.27736" gradientUnits="userSpaceOnUse">
<stop stop-color="#0EA5E9"/>
<stop offset="0.490385" stop-color="#458FE3"/>
<stop offset="1" stop-color="#2D71E6"/>
</linearGradient>
<linearGradient id="paint1_linear_153_307" x1="7.98321" y1="3.86755" x2="22.9415" y2="4.76134" gradientUnits="userSpaceOnUse">
<stop stop-color="#0EA5E9"/>
<stop offset="0.490385" stop-color="#458FE3"/>
<stop offset="1" stop-color="#2D71E6"/>
</linearGradient>
</defs>
</svg>
