<svg width="25" height="24" viewBox="0 0 25 24" fill="none" xmlns="http://www.w3.org/2000/svg">
<path d="M22.2838 7.5499C22.2838 8.2099 21.7438 8.7499 21.0838 8.7499H3.48375C2.82375 8.7499 2.28375 8.2099 2.28375 7.5499V7.5399C2.28375 5.2499 4.13375 3.3999 6.42375 3.3999H18.1338C20.4238 3.3999 22.2838 5.2599 22.2838 7.5499Z" fill="url(#paint0_linear_153_299)"/>
<path d="M2.28375 11.45V16.46C2.28375 18.75 4.13375 20.6 6.42375 20.6H18.1338C20.4238 20.6 22.2838 18.74 22.2838 16.45V11.45C22.2838 10.79 21.7438 10.25 21.0838 10.25H3.48375C2.82375 10.25 2.28375 10.79 2.28375 11.45ZM8.28375 17.25H6.28375C5.87375 17.25 5.53375 16.91 5.53375 16.5C5.53375 16.09 5.87375 15.75 6.28375 15.75H8.28375C8.69375 15.75 9.03375 16.09 9.03375 16.5C9.03375 16.91 8.69375 17.25 8.28375 17.25ZM14.7838 17.25H10.7838C10.3738 17.25 10.0338 16.91 10.0338 16.5C10.0338 16.09 10.3738 15.75 10.7838 15.75H14.7838C15.1938 15.75 15.5338 16.09 15.5338 16.5C15.5338 16.91 15.1938 17.25 14.7838 17.25Z" fill="url(#paint1_linear_153_299)"/>
<defs>
<linearGradient id="paint0_linear_153_299" x1="3.25803" y1="3.83168" x2="22.0737" y2="8.57324" gradientUnits="userSpaceOnUse">
<stop stop-color="#0EA5E9"/>
<stop offset="0.490385" stop-color="#458FE3"/>
<stop offset="1" stop-color="#2D71E6"/>
</linearGradient>
<linearGradient id="paint1_linear_153_299" x1="3.25803" y1="11.0853" x2="22.9347" y2="13.6484" gradientUnits="userSpaceOnUse">
<stop stop-color="#0EA5E9"/>
<stop offset="0.490385" stop-color="#458FE3"/>
<stop offset="1" stop-color="#2D71E6"/>
</linearGradient>
</defs>
</svg>
