<svg width="53" height="50" viewBox="0 0 53 50" fill="none" xmlns="http://www.w3.org/2000/svg">
<path d="M49.1431 0.865472C51.2641 0.978899 52.6872 2.97382 52.4154 5.08039L52.1819 6.88986C51.9112 8.98806 50.0193 10.3897 47.9523 10.8404C46.753 11.1019 45.7356 11.5634 44.9 12.2249C43.3 13.4915 42.2333 15.2582 41.7 17.5249C41.3976 18.8103 41.2345 20.1922 41.2107 21.6705C41.1781 23.7007 42.9314 25.2249 44.9618 25.2249H48.9C51.1091 25.2249 52.9 27.0157 52.9 29.2249V45.3249C52.9 47.534 51.1091 49.3249 48.9 49.3249H34.8C32.5909 49.3249 30.8 47.534 30.8 45.3249V23.2249C30.8 15.3582 32.6667 9.42488 36.4 5.42488C39.5094 2.09724 43.7571 0.577441 49.1431 0.865472ZM18.3431 0.865472C20.4641 0.978899 21.8872 2.97382 21.6154 5.08039L21.3819 6.88986C21.1112 8.98806 19.2193 10.3897 17.1523 10.8404C15.953 11.1019 14.9356 11.5634 14.1 12.2249C12.5 13.4915 11.4333 15.2582 10.9 17.5249C10.5976 18.8103 10.4345 20.1922 10.4107 21.6705C10.3781 23.7007 12.1314 25.2249 14.1618 25.2249H18.1C20.3091 25.2249 22.1 27.0157 22.1 29.2249V45.3249C22.1 47.534 20.3091 49.3249 18.1 49.3249H4.00001C1.79087 49.3249 0 47.534 0 45.3249V23.2249C0 15.3582 1.86667 9.42488 5.6 5.42488C8.70943 2.09724 12.9571 0.577441 18.3431 0.865472Z" fill="#2D71E6" fill-opacity="0.2"/>
</svg>
