<svg width="40" height="40" viewBox="0 0 40 40" fill="none" xmlns="http://www.w3.org/2000/svg">
<path d="M26.9833 3.33325H13.0166C6.94998 3.33325 3.33331 6.94992 3.33331 13.0166V26.9666C3.33331 33.0499 6.94998 36.6666 13.0166 36.6666H26.9666C33.0333 36.6666 36.65 33.0499 36.65 26.9833V13.0166C36.6666 6.94992 33.05 3.33325 26.9833 3.33325ZM20 30.4166C17.0166 30.4166 14.6833 28.9333 13.1 27.4666V28.6499C13.1 29.3333 12.5333 29.8999 11.85 29.8999C11.1666 29.8999 10.6 29.3333 10.6 28.6499V24.0666C10.6 23.3833 11.1666 22.8166 11.85 22.8166H15.9833C16.6666 22.8166 17.2333 23.3833 17.2333 24.0666C17.2333 24.7499 16.6666 25.3166 15.9833 25.3166H14.4833C15.7166 26.5499 17.6333 27.9166 20 27.9166C24.3666 27.9166 27.9166 24.3666 27.9166 19.9999C27.9166 19.3166 28.4833 18.7499 29.1666 18.7499C29.85 18.7499 30.4166 19.3166 30.4166 19.9999C30.4166 25.7499 25.75 30.4166 20 30.4166ZM30.4166 15.8999C30.4166 15.9499 30.4166 15.9999 30.4166 16.0333C30.4 16.2166 30.35 16.3833 30.2666 16.5333C30.1833 16.6833 30.0666 16.8166 29.9166 16.9333C29.8 17.0166 29.6666 17.0833 29.5166 17.1333C29.4 17.1666 29.2833 17.1833 29.1666 17.1833H25.1166C24.4333 17.1833 23.8666 16.6166 23.8666 15.9333C23.8666 15.2499 24.4333 14.6833 25.1166 14.6833H26.5C25.1666 13.4499 23.0166 12.0833 20.0333 12.0833C15.6666 12.0833 12.1166 15.6333 12.1166 19.9999C12.1166 20.6833 11.55 21.2499 10.8666 21.2499C10.1833 21.2499 9.58331 20.6833 9.58331 19.9999C9.58331 14.2499 14.25 9.58325 20 9.58325C23.5833 9.58325 26.2166 11.1333 27.9166 12.6166V11.3499C27.9166 10.6666 28.4833 10.0999 29.1666 10.0999C29.85 10.0999 30.4166 10.6666 30.4166 11.3499V15.8999Z" fill="url(#paint0_linear_153_342)"/>
<defs>
<linearGradient id="paint0_linear_153_342" x1="18.4446" y1="3.62161" x2="32.1669" y2="24.2165" gradientUnits="userSpaceOnUse">
<stop stop-color="#458FE3"/>
<stop offset="1" stop-color="#458FE3" stop-opacity="0.8"/>
</linearGradient>
</defs>
</svg>
