<svg width="41" height="40" viewBox="0 0 41 40" fill="none" xmlns="http://www.w3.org/2000/svg">
<path d="M27.1838 4.9334L12.1338 9.9334C2.0171 13.3167 2.0171 18.8334 12.1338 22.2001L16.6004 23.6834L18.0838 28.1501C21.4504 38.2667 26.9838 38.2667 30.3504 28.1501L35.3671 13.1167C37.6004 6.36674 33.9338 2.6834 27.1838 4.9334ZM27.7171 13.9001L21.3838 20.2667C21.1338 20.5167 20.8171 20.6334 20.5004 20.6334C20.1838 20.6334 19.8671 20.5167 19.6171 20.2667C19.1338 19.7834 19.1338 18.9834 19.6171 18.5001L25.9504 12.1334C26.4338 11.6501 27.2338 11.6501 27.7171 12.1334C28.2004 12.6167 28.2004 13.4167 27.7171 13.9001Z" fill="url(#paint0_linear_153_273)"/>
<defs>
<linearGradient id="paint0_linear_153_273" x1="18.8224" y1="4.54466" x2="31.7715" y2="23.9951" gradientUnits="userSpaceOnUse">
<stop stop-color="#458FE3"/>
<stop offset="1" stop-color="#458FE3" stop-opacity="0.8"/>
</linearGradient>
</defs>
</svg>
