<svg width="40" height="40" viewBox="0 0 40 40" fill="none" xmlns="http://www.w3.org/2000/svg">
<path d="M30.9 6.86673L21.7333 3.4334C20.7833 3.0834 19.2333 3.0834 18.2833 3.4334L9.11663 6.86673C7.34996 7.5334 5.91663 9.60006 5.91663 11.4834V24.9834C5.91663 26.3334 6.79996 28.1167 7.88329 28.9167L17.05 35.7667C18.6666 36.9834 21.3166 36.9834 22.9333 35.7667L32.1 28.9167C33.1833 28.1001 34.0666 26.3334 34.0666 24.9834V11.4834C34.0833 9.60006 32.65 7.5334 30.9 6.86673ZM25.8 16.2001L18.6333 23.3667C18.3833 23.6167 18.0666 23.7334 17.75 23.7334C17.4333 23.7334 17.1166 23.6167 16.8666 23.3667L14.2 20.6667C13.7166 20.1834 13.7166 19.3834 14.2 18.9001C14.6833 18.4167 15.4833 18.4167 15.9666 18.9001L17.7666 20.7001L24.05 14.4167C24.5333 13.9334 25.3333 13.9334 25.8166 14.4167C26.3 14.9001 26.3 15.7167 25.8 16.2001Z" fill="url(#paint0_linear_153_345)"/>
<defs>
<linearGradient id="paint0_linear_153_345" x1="18.6845" y1="3.46077" x2="33.2372" y2="21.8185" gradientUnits="userSpaceOnUse">
<stop stop-color="#458FE3"/>
<stop offset="1" stop-color="#458FE3" stop-opacity="0.8"/>
</linearGradient>
</defs>
</svg>
