<svg width="41" height="41" viewBox="0 0 41 41" fill="none" xmlns="http://www.w3.org/2000/svg">
<path d="M28.8597 6.15869H12.1931C7.19307 6.15869 3.85974 8.65869 3.85974 14.492V26.1587C3.85974 31.992 7.19307 34.492 12.1931 34.492H28.8597C33.8597 34.492 37.1931 31.992 37.1931 26.1587V14.492C37.1931 8.65869 33.8597 6.15869 28.8597 6.15869ZM29.6431 16.3087L24.4264 20.4754C23.3264 21.3587 21.9264 21.792 20.5264 21.792C19.1264 21.792 17.7097 21.3587 16.6264 20.4754L11.4097 16.3087C10.8764 15.8754 10.7931 15.0754 11.2097 14.542C11.6431 14.0087 12.4264 13.9087 12.9597 14.342L18.1764 18.5087C19.4431 19.5254 21.5931 19.5254 22.8597 18.5087L28.0764 14.342C28.6097 13.9087 29.4097 13.992 29.8264 14.542C30.2597 15.0754 30.1764 15.8754 29.6431 16.3087Z" fill="#2D71E6"/>
</svg>
