<svg width="143" height="26" viewBox="0 0 143 26" fill="none" xmlns="http://www.w3.org/2000/svg">
<path d="M12.6081 3.48027C12.9074 2.55896 14.2108 2.55896 14.5102 3.48027L16.1645 8.57176C16.2984 8.98378 16.6823 9.26274 17.1156 9.26274H22.4691C23.4378 9.26274 23.8406 10.5024 23.0569 11.0718L18.7258 14.2185C18.3753 14.4731 18.2286 14.9245 18.3625 15.3365L20.0168 20.428C20.3162 21.3493 19.2617 22.1154 18.478 21.546L14.1469 18.3993C13.7964 18.1447 13.3218 18.1447 12.9713 18.3993L8.64026 21.546C7.85655 22.1154 6.80207 21.3493 7.10142 20.428L8.75575 15.3365C8.88962 14.9245 8.74296 14.4731 8.39248 14.2185L4.0614 11.0718C3.27768 10.5024 3.68046 9.26274 4.64918 9.26274H10.0027C10.4359 9.26274 10.8199 8.98378 10.9537 8.57176L12.6081 3.48027Z" fill="#FFBC13"/>
<path d="M41.8172 3.48027C42.1165 2.55896 43.4199 2.55896 43.7193 3.48027L45.3736 8.57176C45.5075 8.98378 45.8914 9.26274 46.3247 9.26274H51.6782C52.6469 9.26274 53.0497 10.5024 52.266 11.0718L47.9349 14.2185C47.5844 14.4731 47.4377 14.9245 47.5716 15.3365L49.2259 20.428C49.5253 21.3493 48.4708 22.1154 47.6871 21.546L43.356 18.3993C43.0055 18.1447 42.5309 18.1447 42.1804 18.3993L37.8494 21.546C37.0657 22.1154 36.0112 21.3493 36.3105 20.428L37.9649 15.3365C38.0987 14.9245 37.9521 14.4731 37.6016 14.2185L33.2705 11.0718C32.4868 10.5024 32.8896 9.26274 33.8583 9.26274H39.2118C39.645 9.26274 40.029 8.98378 40.1629 8.57176L41.8172 3.48027Z" fill="#FFBC13"/>
<path d="M71.0263 3.48027C71.3256 2.55896 72.629 2.55896 72.9284 3.48027L74.5827 8.57176C74.7166 8.98378 75.1006 9.26274 75.5338 9.26274H80.8873C81.856 9.26274 82.2588 10.5024 81.4751 11.0718L77.144 14.2185C76.7935 14.4731 76.6468 14.9245 76.7807 15.3365L78.435 20.428C78.7344 21.3493 77.6799 22.1154 76.8962 21.546L72.5651 18.3993C72.2146 18.1447 71.74 18.1447 71.3896 18.3993L67.0585 21.546C66.2748 22.1154 65.2203 21.3493 65.5196 20.428L67.174 15.3365C67.3078 14.9245 67.1612 14.4731 66.8107 14.2185L62.4796 11.0718C61.6959 10.5024 62.0987 9.26274 63.0674 9.26274H68.4209C68.8541 9.26274 69.2381 8.98378 69.372 8.57176L71.0263 3.48027Z" fill="#FFBC13"/>
<path d="M100.235 3.48027C100.535 2.55896 101.838 2.55896 102.137 3.48027L103.792 8.57176C103.926 8.98378 104.31 9.26274 104.743 9.26274H110.096C111.065 9.26274 111.468 10.5024 110.684 11.0718L106.353 14.2185C106.002 14.4731 105.856 14.9245 105.99 15.3365L107.644 20.428C107.943 21.3493 106.889 22.1154 106.105 21.546L101.774 18.3993C101.424 18.1447 100.949 18.1447 100.599 18.3993L96.2675 21.546C95.4837 22.1154 94.4293 21.3493 94.7286 20.428L96.3829 15.3365C96.5168 14.9245 96.3702 14.4731 96.0197 14.2185L91.6886 11.0718C90.9049 10.5024 91.3077 9.26274 92.2764 9.26274H97.6299C98.0631 9.26274 98.4471 8.98378 98.5809 8.57176L100.235 3.48027Z" fill="#FFBC13"/>
<path d="M129.444 3.48027C129.744 2.55896 131.047 2.55896 131.346 3.48027L133.001 8.57176C133.135 8.98378 133.519 9.26274 133.952 9.26274H139.305C140.274 9.26274 140.677 10.5024 139.893 11.0718L135.562 14.2185C135.212 14.4731 135.065 14.9245 135.199 15.3365L136.853 20.428C137.152 21.3493 136.098 22.1154 135.314 21.546L130.983 18.3993C130.633 18.1447 130.158 18.1447 129.808 18.3993L125.477 21.546C124.693 22.1154 123.638 21.3493 123.938 20.428L125.592 15.3365C125.726 14.9245 125.579 14.4731 125.229 14.2185L120.898 11.0718C120.114 10.5024 120.517 9.26274 121.485 9.26274H126.839C127.272 9.26274 127.656 8.98378 127.79 8.57176L129.444 3.48027Z" fill="#FFBC13"/>
</svg>
