<svg width="95" height="40" viewBox="0 0 95 40" fill="none" xmlns="http://www.w3.org/2000/svg">
<path d="M65.1973 8.4375C69.8146 8.43758 74.1679 12.6569 74.1943 20.4004C74.1943 28.8649 69.8938 32.7099 65.1709 32.71C62.8494 32.71 61.4508 31.7226 60.501 31.0283L60.4746 38.585L53.8779 40V8.86523H59.6826L60.0254 10.5205C60.9489 9.66604 62.6115 8.4375 65.1973 8.4375ZM8.91797 8.4375C11.1079 8.4375 13.2719 8.78484 15.4619 9.66602V15.9414C13.4566 14.8466 10.9232 14.2324 8.91797 14.2324C7.51977 14.2324 6.67596 14.6327 6.67578 15.6738C6.67578 18.6645 16.7285 17.2498 16.7549 25.207C16.7548 29.9866 12.9812 32.7373 7.49316 32.7373C5.22406 32.7373 2.74383 32.2829 0.290039 31.2148V24.8594C2.50636 26.0877 5.3032 26.9961 7.49316 26.9961C8.97069 26.9961 10.0263 26.5954 10.0264 25.3672C10.0264 22.1896 0 23.3639 0 15.9941C0.000222213 11.2682 3.56199 8.43754 8.91797 8.4375ZM24.4854 8.8916H29.498V14.5801H24.4854V24.0586C24.4854 28.0102 28.6533 26.7828 29.498 26.4355V31.8555C28.6273 32.3361 27.0444 32.7373 24.8809 32.7373C20.976 32.7373 18.0471 29.8267 18.0469 25.875L18.0732 4.48633L24.5117 3.09766L24.4854 8.8916ZM85.4609 8.4375C91.7141 8.4375 94.9862 13.8315 94.9863 20.667C94.9863 21.3078 94.9336 22.6968 94.9336 23.0439H82.0312C82.3215 26.1946 84.5902 27.1024 87.1494 27.1025C89.7615 27.1025 91.8201 26.5417 93.6143 25.6338V30.9746C91.8201 31.9893 89.4454 32.7099 86.3057 32.71C79.8677 32.71 75.3819 28.6515 75.3818 20.6143C75.3818 13.832 79.1814 8.43767 85.4609 8.4375ZM37.7041 10.8682C39.2608 7.98444 42.3479 8.57214 43.1924 8.89258V15.0332C42.374 14.7395 39.7362 14.3664 38.1797 16.4219V32.2568H31.583V8.89258H37.2822L37.7041 10.8682ZM51.4238 32.2559H44.8018V8.8916H51.4238V32.2559ZM63.6143 14.3662C62.1103 14.3662 61.1606 14.9005 60.4746 15.6748L60.501 25.5811C61.1342 26.2752 62.0578 26.8359 63.6143 26.8359C66.0415 26.8357 67.6777 24.1657 67.6777 20.5879C67.6777 17.0901 66.0151 14.3664 63.6143 14.3662ZM85.4346 13.8584C83.7724 13.8585 81.9521 15.1136 81.9521 18.1309H88.7598C88.7598 15.1135 87.0441 13.8584 85.4346 13.8584ZM51.4248 5.4209L44.8018 6.8623V1.41504L51.4248 0V5.4209Z" fill="url(#paint0_linear_153_328)"/>
<defs>
<linearGradient id="paint0_linear_153_328" x1="43.0825" y1="0.346031" x2="52.3606" y2="33.4295" gradientUnits="userSpaceOnUse">
<stop stop-color="#458FE3"/>
<stop offset="1" stop-color="#458FE3" stop-opacity="0.8"/>
</linearGradient>
</defs>
</svg>
