<svg width="20" height="21" viewBox="0 0 20 21" fill="none" xmlns="http://www.w3.org/2000/svg">
<path d="M10 2.24292C5.40833 2.24292 1.66666 5.98459 1.66666 10.5763C1.66666 15.1679 5.40833 18.9096 10 18.9096C14.5917 18.9096 18.3333 15.1679 18.3333 10.5763C18.3333 5.98459 14.5917 2.24292 10 2.24292ZM13.9833 8.65959L9.25833 13.3846C9.14166 13.5013 8.98333 13.5679 8.81666 13.5679C8.65 13.5679 8.49166 13.5013 8.375 13.3846L6.01666 11.0263C5.775 10.7846 5.775 10.3846 6.01666 10.1429C6.25833 9.90125 6.65833 9.90125 6.9 10.1429L8.81666 12.0596L13.1 7.77625C13.3417 7.53459 13.7417 7.53459 13.9833 7.77625C14.225 8.01792 14.225 8.40959 13.9833 8.65959Z" fill="#008B51"/>
</svg>
