<svg width="25" height="24" viewBox="0 0 25 24" fill="none" xmlns="http://www.w3.org/2000/svg">
<path d="M20.7838 10.19H17.8938C15.5238 10.19 13.5938 8.26 13.5938 5.89V3C13.5938 2.45 13.1438 2 12.5938 2H8.35375C5.27375 2 2.78375 4 2.78375 7.57V16.43C2.78375 20 5.27375 22 8.35375 22H16.2138C19.2938 22 21.7838 20 21.7838 16.43V11.19C21.7838 10.64 21.3338 10.19 20.7838 10.19ZM11.8138 13.53C11.6638 13.68 11.4738 13.75 11.2838 13.75C11.0938 13.75 10.9038 13.68 10.7538 13.53L10.0338 12.81V17C10.0338 17.41 9.69375 17.75 9.28375 17.75C8.87375 17.75 8.53375 17.41 8.53375 17V12.81L7.81375 13.53C7.52375 13.82 7.04375 13.82 6.75375 13.53C6.46375 13.24 6.46375 12.76 6.75375 12.47L8.75375 10.47C8.82375 10.41 8.89375 10.36 8.97375 10.32C8.99375 10.31 9.02375 10.3 9.04375 10.29C9.10375 10.27 9.16375 10.26 9.23375 10.25C9.26375 10.25 9.28375 10.25 9.31375 10.25C9.39375 10.25 9.47375 10.27 9.55375 10.3C9.56375 10.3 9.56375 10.3 9.57375 10.3C9.65375 10.33 9.73375 10.39 9.79375 10.45C9.80375 10.46 9.81375 10.46 9.81375 10.47L11.8138 12.47C12.1038 12.76 12.1038 13.24 11.8138 13.53Z" fill="url(#paint0_linear_153_303)"/>
<path d="M17.7137 8.80999C18.6637 8.81999 19.9837 8.81999 21.1137 8.81999C21.6837 8.81999 21.9837 8.14999 21.5837 7.74999C20.1437 6.29999 17.5637 3.68999 16.0837 2.20999C15.6737 1.79999 14.9637 2.07999 14.9637 2.64999V6.13999C14.9637 7.59999 16.2037 8.80999 17.7137 8.80999Z" fill="url(#paint1_linear_153_303)"/>
<defs>
<linearGradient id="paint0_linear_153_303" x1="3.70932" y1="3.61412" x2="22.6417" y2="4.82654" gradientUnits="userSpaceOnUse">
<stop stop-color="#0EA5E9"/>
<stop offset="0.490385" stop-color="#458FE3"/>
<stop offset="1" stop-color="#2D71E6"/>
</linearGradient>
<linearGradient id="paint1_linear_153_303" x1="15.2951" y1="2.56433" x2="22.071" y2="3.02097" gradientUnits="userSpaceOnUse">
<stop stop-color="#0EA5E9"/>
<stop offset="0.490385" stop-color="#458FE3"/>
<stop offset="1" stop-color="#2D71E6"/>
</linearGradient>
</defs>
</svg>
