<svg width="25" height="24" viewBox="0 0 25 24" fill="none" xmlns="http://www.w3.org/2000/svg">
<path d="M12.5305 16.0962L10.5775 15.4457C10.5182 15.4252 10.4657 15.389 10.4254 15.341C10.3851 15.293 10.3585 15.235 10.3486 15.1731C10.3387 15.1112 10.3457 15.0478 10.369 14.9896C10.3923 14.9314 10.4309 14.8806 10.4808 14.8426C10.9645 14.4181 11.3493 13.8929 11.6083 13.3037C11.8672 12.7146 11.994 12.0759 11.9797 11.4325C11.9797 9.14875 10.4369 7.29736 8.53371 7.29736C6.63052 7.29736 5.08777 9.14872 5.08777 11.4325C5.07343 12.0759 5.20019 12.7146 5.45914 13.3037C5.71809 13.8929 6.10295 14.4181 6.58666 14.8426C6.63652 14.8806 6.67515 14.9314 6.69842 14.9896C6.72169 15.0478 6.72874 15.1112 6.71882 15.1731C6.7089 15.235 6.68237 15.293 6.64207 15.341C6.60176 15.389 6.54919 15.4252 6.48996 15.4457L4.53696 16.0962C4.06171 16.2545 3.62668 16.5145 3.26219 16.8581C2.89769 17.2017 2.6125 17.6207 2.42646 18.0858L2.01988 19.1022C1.97805 19.2068 1.96248 19.32 1.97455 19.432C1.98661 19.544 2.02593 19.6513 2.08907 19.7446C2.15222 19.8378 2.23725 19.9142 2.33674 19.967C2.43623 20.0198 2.54714 20.0474 2.65977 20.0474H14.4077C14.5203 20.0474 14.6312 20.0198 14.7307 19.967C14.8302 19.9142 14.9152 19.8378 14.9784 19.7446C15.0415 19.6513 15.0808 19.544 15.0929 19.432C15.1049 19.32 15.0894 19.2068 15.0476 19.1022L14.641 18.0858C14.4549 17.6207 14.1697 17.2017 13.8052 16.8581C13.4407 16.5145 13.0057 16.2545 12.5305 16.0962Z" fill="url(#paint0_linear_153_285)"/>
<path d="M14.9087 7.31246C14.8348 7.31255 14.7617 7.29803 14.6934 7.26975C14.6252 7.24147 14.5632 7.19998 14.511 7.14766L13.386 6.02266C13.2812 5.91705 13.2224 5.77419 13.2227 5.62538C13.223 5.47657 13.2822 5.33393 13.3875 5.2287C13.4927 5.12347 13.6353 5.06424 13.7841 5.06397C13.9329 5.06369 14.0758 5.12241 14.1814 5.22725L14.9087 5.95454L16.761 4.10225C16.8666 3.99741 17.0095 3.93869 17.1583 3.93897C17.3071 3.93924 17.4497 3.99847 17.555 4.1037C17.6602 4.20893 17.7194 4.35157 17.7197 4.50038C17.72 4.64919 17.6613 4.79205 17.5564 4.89766L15.3064 7.14766C15.2542 7.19998 15.1923 7.24147 15.124 7.26975C15.0558 7.29803 14.9826 7.31255 14.9087 7.31246Z" fill="url(#paint1_linear_153_285)"/>
<path d="M22.0337 5.0625H19.0337C18.8845 5.0625 18.7414 5.00324 18.6359 4.89775C18.5305 4.79226 18.4712 4.64918 18.4712 4.5C18.4712 4.35082 18.5305 4.20774 18.6359 4.10225C18.7414 3.99676 18.8845 3.9375 19.0337 3.9375H22.0337C22.1829 3.9375 22.326 3.99676 22.4314 4.10225C22.5369 4.20774 22.5962 4.35082 22.5962 4.5C22.5962 4.64918 22.5369 4.79226 22.4314 4.89775C22.326 5.00324 22.1829 5.0625 22.0337 5.0625Z" fill="url(#paint2_linear_153_285)"/>
<path d="M20.5337 7.3125H19.0337C18.8845 7.3125 18.7414 7.25324 18.6359 7.14775C18.5305 7.04226 18.4712 6.89918 18.4712 6.75C18.4712 6.60082 18.5305 6.45774 18.6359 6.35225C18.7414 6.24676 18.8845 6.1875 19.0337 6.1875H20.5337C20.6829 6.1875 20.826 6.24676 20.9314 6.35225C21.0369 6.45774 21.0962 6.60082 21.0962 6.75C21.0962 6.89918 21.0369 7.04226 20.9314 7.14775C20.826 7.25324 20.6829 7.3125 20.5337 7.3125Z" fill="url(#paint3_linear_153_285)"/>
<path d="M14.9087 13.3125C14.8349 13.3125 14.7617 13.298 14.6934 13.2697C14.6252 13.2415 14.5632 13.2 14.511 13.1477L13.386 12.0227C13.3335 11.9705 13.2918 11.9085 13.2633 11.8402C13.2347 11.7718 13.22 11.6986 13.2198 11.6245C13.2197 11.5505 13.2342 11.4772 13.2625 11.4087C13.2907 11.3403 13.3322 11.2782 13.3846 11.2258C13.4369 11.1735 13.4991 11.132 13.5675 11.1037C13.6359 11.0754 13.7093 11.0609 13.7833 11.0611C13.8573 11.0612 13.9306 11.076 13.9989 11.1045C14.0673 11.133 14.1293 11.1747 14.1814 11.2273L14.9087 11.9545L16.761 10.1023C16.8666 9.99741 17.0095 9.93869 17.1583 9.93897C17.3071 9.93924 17.4498 9.99847 17.555 10.1037C17.6602 10.2089 17.7195 10.3516 17.7197 10.5004C17.72 10.6492 17.6613 10.792 17.5564 10.8977L15.3064 13.1477C15.2543 13.2 15.1923 13.2415 15.124 13.2697C15.0558 13.298 14.9826 13.3125 14.9087 13.3125Z" fill="url(#paint4_linear_153_285)"/>
<path d="M22.0337 11.0625H19.0337C18.8845 11.0625 18.7414 11.0032 18.6359 10.8977C18.5305 10.7923 18.4712 10.6492 18.4712 10.5C18.4712 10.3508 18.5305 10.2077 18.6359 10.1023C18.7414 9.99676 18.8845 9.9375 19.0337 9.9375H22.0337C22.1829 9.9375 22.326 9.99676 22.4314 10.1023C22.5369 10.2077 22.5962 10.3508 22.5962 10.5C22.5962 10.6492 22.5369 10.7923 22.4314 10.8977C22.326 11.0032 22.1829 11.0625 22.0337 11.0625Z" fill="url(#paint5_linear_153_285)"/>
<path d="M20.5337 13.3125H19.0337C18.8845 13.3125 18.7414 13.2532 18.6359 13.1477C18.5305 13.0423 18.4712 12.8992 18.4712 12.75C18.4712 12.6008 18.5305 12.4577 18.6359 12.3523C18.7414 12.2468 18.8845 12.1875 19.0337 12.1875H20.5337C20.6829 12.1875 20.826 12.2468 20.9314 12.3523C21.0369 12.4577 21.0962 12.6008 21.0962 12.75C21.0962 12.8992 21.0369 13.0423 20.9314 13.1477C20.826 13.2532 20.6829 13.3125 20.5337 13.3125Z" fill="url(#paint6_linear_153_285)"/>
<path d="M22.0337 16.3125H19.0337C18.8845 16.3125 18.7414 16.2532 18.6359 16.1477C18.5305 16.0423 18.4712 15.8992 18.4712 15.75C18.4712 15.6008 18.5305 15.4577 18.6359 15.3523C18.7414 15.2468 18.8845 15.1875 19.0337 15.1875H22.0337C22.1829 15.1875 22.326 15.2468 22.4314 15.3523C22.5369 15.4577 22.5962 15.6008 22.5962 15.75C22.5962 15.8992 22.5369 16.0423 22.4314 16.1477C22.326 16.2532 22.1829 16.3125 22.0337 16.3125Z" fill="url(#paint7_linear_153_285)"/>
<path d="M20.5337 18.5625H19.0337C18.8845 18.5625 18.7414 18.5032 18.6359 18.3977C18.5305 18.2923 18.4712 18.1492 18.4712 18C18.4712 17.8508 18.5305 17.7077 18.6359 17.6023C18.7414 17.4968 18.8845 17.4375 19.0337 17.4375H20.5337C20.6829 17.4375 20.826 17.4968 20.9314 17.6023C21.0369 17.7077 21.0962 17.8508 21.0962 18C21.0962 18.1492 21.0369 18.2923 20.9314 18.3977C20.826 18.5032 20.6829 18.5625 20.5337 18.5625Z" fill="url(#paint8_linear_153_285)"/>
<defs>
<linearGradient id="paint0_linear_153_285" x1="2.61001" y1="8.32636" x2="15.6802" y2="9.23343" gradientUnits="userSpaceOnUse">
<stop stop-color="#0EA5E9"/>
<stop offset="0.490385" stop-color="#458FE3"/>
<stop offset="1" stop-color="#2D71E6"/>
</linearGradient>
<linearGradient id="paint1_linear_153_285" x1="13.4418" y1="4.21123" x2="17.9051" y2="4.6123" gradientUnits="userSpaceOnUse">
<stop stop-color="#0EA5E9"/>
<stop offset="0.490385" stop-color="#458FE3"/>
<stop offset="1" stop-color="#2D71E6"/>
</linearGradient>
<linearGradient id="paint2_linear_153_285" x1="18.6721" y1="4.02829" x2="22.5617" y2="4.98968" gradientUnits="userSpaceOnUse">
<stop stop-color="#0EA5E9"/>
<stop offset="0.490385" stop-color="#458FE3"/>
<stop offset="1" stop-color="#2D71E6"/>
</linearGradient>
<linearGradient id="paint3_linear_153_285" x1="18.5991" y1="6.27829" x2="21.162" y2="6.68143" gradientUnits="userSpaceOnUse">
<stop stop-color="#0EA5E9"/>
<stop offset="0.490385" stop-color="#458FE3"/>
<stop offset="1" stop-color="#2D71E6"/>
</linearGradient>
<linearGradient id="paint4_linear_153_285" x1="13.4391" y1="10.2112" x2="17.9052" y2="10.6128" gradientUnits="userSpaceOnUse">
<stop stop-color="#0EA5E9"/>
<stop offset="0.490385" stop-color="#458FE3"/>
<stop offset="1" stop-color="#2D71E6"/>
</linearGradient>
<linearGradient id="paint5_linear_153_285" x1="18.6721" y1="10.0283" x2="22.5617" y2="10.9897" gradientUnits="userSpaceOnUse">
<stop stop-color="#0EA5E9"/>
<stop offset="0.490385" stop-color="#458FE3"/>
<stop offset="1" stop-color="#2D71E6"/>
</linearGradient>
<linearGradient id="paint6_linear_153_285" x1="18.5991" y1="12.2783" x2="21.162" y2="12.6814" gradientUnits="userSpaceOnUse">
<stop stop-color="#0EA5E9"/>
<stop offset="0.490385" stop-color="#458FE3"/>
<stop offset="1" stop-color="#2D71E6"/>
</linearGradient>
<linearGradient id="paint7_linear_153_285" x1="18.6721" y1="15.2783" x2="22.5617" y2="16.2397" gradientUnits="userSpaceOnUse">
<stop stop-color="#0EA5E9"/>
<stop offset="0.490385" stop-color="#458FE3"/>
<stop offset="1" stop-color="#2D71E6"/>
</linearGradient>
<linearGradient id="paint8_linear_153_285" x1="18.5991" y1="17.5283" x2="21.162" y2="17.9314" gradientUnits="userSpaceOnUse">
<stop stop-color="#0EA5E9"/>
<stop offset="0.490385" stop-color="#458FE3"/>
<stop offset="1" stop-color="#2D71E6"/>
</linearGradient>
</defs>
</svg>
