<svg width="40" height="40" viewBox="0 0 40 40" fill="none" xmlns="http://www.w3.org/2000/svg">
<path d="M35.9333 17.8999L33.6667 15.2666C33.2333 14.7666 32.8833 13.8333 32.8833 13.1666V10.3333C32.8833 8.5666 31.4333 7.1166 29.6667 7.1166H26.8333C26.1833 7.1166 25.2333 6.7666 24.7333 6.33327L22.1 4.0666C20.95 3.08327 19.0667 3.08327 17.9 4.0666L15.2833 6.34993C14.7833 6.7666 13.8333 7.1166 13.1833 7.1166H10.3C8.53333 7.1166 7.08333 8.5666 7.08333 10.3333V13.1833C7.08333 13.8333 6.73333 14.7666 6.31667 15.2666L4.06667 17.9166C3.1 19.0666 3.1 20.9333 4.06667 22.0833L6.31667 24.7333C6.73333 25.2333 7.08333 26.1666 7.08333 26.8166V29.6666C7.08333 31.4333 8.53333 32.8833 10.3 32.8833H13.1833C13.8333 32.8833 14.7833 33.2333 15.2833 33.6666L17.9167 35.9333C19.0667 36.9166 20.95 36.9166 22.1167 35.9333L24.75 33.6666C25.25 33.2333 26.1833 32.8833 26.85 32.8833H29.6833C31.45 32.8833 32.9 31.4333 32.9 29.6666V26.8333C32.9 26.1833 33.25 25.2333 33.6833 24.7333L35.95 22.0999C36.9167 20.9499 36.9167 19.0499 35.9333 17.8999ZM26.9333 16.8499L18.8833 24.8999C18.65 25.1333 18.3333 25.2666 18 25.2666C17.6667 25.2666 17.35 25.1333 17.1167 24.8999L13.0833 20.8666C12.6 20.3833 12.6 19.5833 13.0833 19.0999C13.5667 18.6166 14.3667 18.6166 14.85 19.0999L18 22.2499L25.1667 15.0833C25.65 14.5999 26.45 14.5999 26.9333 15.0833C27.4167 15.5666 27.4167 16.3666 26.9333 16.8499Z" fill="url(#paint0_linear_250_33)"/>
<defs>
<linearGradient id="paint0_linear_250_33" x1="18.4596" y1="3.61753" x2="32.1843" y2="24.2199" gradientUnits="userSpaceOnUse">
<stop stop-color="#458FE3"/>
<stop offset="1" stop-color="#458FE3" stop-opacity="0.8"/>
</linearGradient>
</defs>
</svg>
